<svg width="24" height="24" viewBox="0 0 24 24" fill="none" xmlns="http://www.w3.org/2000/svg">
<path fill-rule="evenodd" clip-rule="evenodd" d="M9.60003 4.80002C6.94906 4.80002 4.80002 6.94906 4.80002 9.60003C4.80002 12.2509 6.94906 14.4 9.60003 14.4C12.2509 14.4 14.4 12.2509 14.4 9.60003C14.4 6.94906 12.2509 4.80002 9.60003 4.80002ZM2.40002 9.60003C2.40002 5.62357 5.62357 2.40002 9.60003 2.40002C13.5765 2.40002 16.8 5.62357 16.8 9.60003C16.8 11.155 16.3071 12.5949 15.4689 13.7718L21.2485 19.5515C21.7171 20.0201 21.7171 20.7799 21.2485 21.2485C20.7799 21.7171 20.0201 21.7171 19.5515 21.2485L13.7718 15.4689C12.5949 16.3071 11.155 16.8 9.60003 16.8C5.62357 16.8 2.40002 13.5765 2.40002 9.60003Z" fill="#E1CEBE"/>
</svg>
